# xmcd
#
# Track frame offsets: 
#        182
#        9652
#        23142
#        30860
#        50550
#        64410
#        75632
#        82725
#        92192
#        105455
#        114120
#        132080
#        147797
#
# Disc length: 2192 seconds
#
# Revision: 0
# Processed by: cddbd v1.5.2PL0 Copyright (c) Steve Scherf et al.
# Submitted via: ExactAudioCopy v1.0b1
#
DISCID=94088e0d
DTITLE=Aida Monasterio (P) Oscar Monzo (BARÍTONO) - Negro Spirituals
DYEAR=1991
DGENRE=Gospel
TTITLE0=I want to be ready
TTITLE1=Deep River
TTITLE2=O Peter go ring a dem bells
TTITLE3=Steal away
TTITLE4=Swing low, sweet charriot
TTITLE5=Wade in the water
TTITLE6=The golpel train
TTITLE7=Every time
TTITLE8=Go down Moses
TTITLE9=´Tis time o Lord
TTITLE10=My Lord, what s morning
TTITLE11=Where you there
TTITLE12=Nobodt knows
EXTD=
EXTT0=
EXTT1=
EXTT2=
EXTT3=
EXTT4=
EXTT5=
EXTT6=
EXTT7=
EXTT8=
EXTT9=
EXTT10=
EXTT11=
EXTT12=
PLAYORDER=
